<svg id="SvgjsSvg1068" width="360" height="275" xmlns="http://www.w3.org/2000/svg" version="1.1" xmlns:xlink="http://www.w3.org/1999/xlink" xmlns:svgjs="http://svgjs.com/svgjs"><defs id="SvgjsDefs1069"><svg width="52px" height="52px" xmlns="http://www.w3.org/2000/svg" data-name="Layer 30" viewBox="0 0 100 100" x="0px" y="0px" id="a1492657810617"><title>Artboard 1</title><path d="M86,49a4.67,4.67,0,0,0-4.62,4H64.89L60,62.44,49.94,17,38.62,74.17,29.17,30.75,22.26,53H17.81a4.7,4.7,0,1,0-.14,2h6.07l5.09-16.41L38.71,84,50.06,26.76l9.24,41.52L66.11,55H81.52A4.68,4.68,0,1,0,86,49Z"></path></svg><!--?xml version="1.0"?-->
<svg width="662.48936px" height="253.68px" id="t1492657810617"><path fill="#ffffff" d="M42.43824,13.42c4.24072,0,7.72992,1.23464,10.30656,3.65024c2.63032,2.46928,3.91864,5.79744,3.91864,9.82344c0,4.07968-1.28832,7.35416-3.91864,9.82344c-2.57664,2.4156-6.06584,3.59656-10.30656,3.59656l-10.25288,0l0,10.95072c0,1.01992-0.85888,1.8788-1.8788,1.8788l-4.07968,0c-1.01992,0-1.8788-0.85888-1.8788-1.8788l0-16.6408c0-1.01992,0.85888-1.8788,1.8788-1.8788l15.88928,0c2.36192,0,4.07968-0.48312,5.15328-1.55672c1.0736-0.96624,1.55672-2.4156,1.55672-4.2944s-0.48312-3.27448-1.55672-4.2944s-2.79136-1.55672-5.15328-1.55672l-15.88928,0c-1.01992,0-1.8788-0.85888-1.8788-1.8788l0-3.86496c0-1.01992,0.85888-1.8788,1.8788-1.8788l16.21136,0z M68.0436,13.42c1.01992,0,1.8788,0.85888,1.8788,1.8788l0,35.64352c0,1.01992-0.85888,1.8788-1.8788,1.8788l-4.026,0c-1.01992,0-1.8788-0.85888-1.8788-1.8788l0-35.64352c0-1.01992,0.85888-1.8788,1.8788-1.8788l4.026,0z M106.6932,32.4764c1.82512,1.18096,3.16712,2.84504,4.026,4.88488c0.48312,1.23464,0.69784,2.684,0.69784,4.24072c0,5.0996-2.79136,8.69616-8.10568,10.36024c-1.66408,0.59048-3.65024,0.85888-5.9048,0.85888l-16.9092,0c-1.01992,0-1.8788-0.85888-1.8788-1.8788l0-35.64352c0-1.01992,0.85888-1.8788,1.8788-1.8788l15.99664,0c4.34808,0,7.72992,1.23464,10.09184,3.70392c1.98616,1.98616,3.00608,4.5628,3.00608,7.56888c0,3.27448-0.96624,5.9048-2.89872,7.7836z M97.40656,36.7708l-11.0044,0l0,8.48144l11.43384,0c2.03984,0,3.59656-0.37576,4.5628-1.12728c0.85888-0.69784,1.28832-1.6104,1.28832-2.84504c0-1.28832-0.42944-2.25456-1.342-3.05976c-1.0736-0.96624-2.73768-1.44936-4.93856-1.44936z M101.43256,27.00104c0.2684-0.5368,0.37576-1.0736,0.37576-1.71776c0-0.69784-0.05368-1.28832-0.2684-1.77144c-0.16104-0.48312-0.37576-0.85888-0.69784-1.18096c-0.91256-0.91256-2.1472-1.342-3.91864-1.342l-10.52128,0l0,8.37408l10.09184,0c3.38184,0,4.45544-1.342,4.93856-2.36192z M146.04064,13.42c1.0736,0,1.8788,0.85888,1.8788,1.8788l0,3.86496c0,1.01992-0.8052,1.8788-1.8788,1.8788l-20.29104,0l0,8.21304l17.92912,0c1.0736,0,1.8788,0.85888,1.8788,1.8788l0,3.91864c0,1.01992-0.8052,1.8788-1.8788,1.8788l-17.92912,0l0,8.26672l20.29104,0c1.0736,0,1.8788,0.85888,1.8788,1.8788l0,3.86496c0,1.01992-0.8052,1.8788-1.8788,1.8788l-26.19584,0c-1.01992,0-1.8788-0.85888-1.8788-1.8788l0-35.64352c0-1.01992,0.85888-1.8788,1.8788-1.8788l26.19584,0z M179.75168,45.19856c1.0736,0,1.8788,0.85888,1.8788,1.8788l0,3.86496c0,1.01992-0.8052,1.8788-1.8788,1.8788l-23.45816,0c-1.01992,0-1.8788-0.85888-1.8788-1.8788l0-35.64352c0-1.01992,0.85888-1.8788,1.8788-1.8788l4.026,0c1.01992,0,1.8788,0.85888,1.8788,1.8788l0,29.89976l17.55336,0z"></path></svg>
</defs><use id="SvgjsUse1070" xlink:href="#t1492657810617" fill="#ffffff" x="77.0107250213623" y="126.13840198516846"></use><use id="SvgjsUse1071" xlink:href="#a1492657810617" fill="#ffffff" x="154" y="85.87839698791504"></use></svg>